<svg xmlns="http://www.w3.org/2000/svg" width="960" height="540" viewBox="0 0 960 540" role="img" aria-labelledby="title desc">
  <title id="title">Roblox Kod Tablosu Banner</title>
  <desc id="desc">Karanlik temada kod tablosu ve kopyala butonu cizimi</desc>
  <defs>
    <linearGradient id="bg" x1="0" y1="0" x2="1" y2="1">
      <stop offset="0%" stop-color="#132440"/>
      <stop offset="100%" stop-color="#0a111d"/>
    </linearGradient>
  </defs>
  <rect width="960" height="540" fill="url(#bg)"/>
  <rect x="70" y="70" width="820" height="400" rx="20" fill="#0f1b30" stroke="#2b4569" stroke-width="2"/>
  <rect x="110" y="120" width="740" height="44" rx="10" fill="#1a2a45"/>
  <text x="134" y="148" fill="#98afcd" font-size="18" font-family="Segoe UI, Tahoma, sans-serif">Kod</text>
  <text x="430" y="148" fill="#98afcd" font-size="18" font-family="Segoe UI, Tahoma, sans-serif">Odul</text>
  <text x="700" y="148" fill="#98afcd" font-size="18" font-family="Segoe UI, Tahoma, sans-serif">Durum</text>

  <rect x="110" y="182" width="740" height="56" rx="10" fill="#121f34" stroke="#2b4569"/>
  <text x="134" y="216" fill="#6ad9ff" font-size="20" font-weight="700" font-family="Segoe UI, Tahoma, sans-serif">SEABEAST2026</text>
  <rect x="286" y="194" width="90" height="32" rx="8" fill="#0f1a2a" stroke="#2b4569"/>
  <text x="309" y="216" fill="#edf4ff" font-size="15" font-family="Segoe UI, Tahoma, sans-serif">Kopyala</text>
  <text x="430" y="216" fill="#edf4ff" font-size="16" font-family="Segoe UI, Tahoma, sans-serif">20 dk x2 Deneyim</text>
  <rect x="700" y="194" width="100" height="32" rx="16" fill="#1a3a29" stroke="#5bd27f"/>
  <text x="732" y="216" fill="#95f5a8" font-size="14" font-family="Segoe UI, Tahoma, sans-serif">Aktif</text>

  <rect x="110" y="252" width="740" height="56" rx="10" fill="#121f34" stroke="#2b4569"/>
  <text x="134" y="286" fill="#6ad9ff" font-size="20" font-weight="700" font-family="Segoe UI, Tahoma, sans-serif">SHADOWDROP</text>
  <rect x="286" y="264" width="90" height="32" rx="8" fill="#0f1a2a" stroke="#2b4569"/>
  <text x="309" y="286" fill="#edf4ff" font-size="15" font-family="Segoe UI, Tahoma, sans-serif">Kopyala</text>
  <text x="430" y="286" fill="#edf4ff" font-size="16" font-family="Segoe UI, Tahoma, sans-serif">Sinirli kozmetik odulu</text>
  <rect x="700" y="264" width="100" height="32" rx="16" fill="#3d2028" stroke="#d77f8f"/>
  <text x="716" y="286" fill="#ffb5c3" font-size="14" font-family="Segoe UI, Tahoma, sans-serif">Gecersiz</text>

  <text x="110" y="430" fill="#98afcd" font-size="16" font-family="Segoe UI, Tahoma, sans-serif">Code Vault - Roblox Kodlari</text>
</svg>
